<mxfile host="app.diagrams.net" modified="2022-06-01T13:16:35.264Z" agent="5.0 (Windows NT 10.0; Win64; x64) AppleWebKit/537.36 (KHTML, like Gecko) Chrome/102.0.5005.61 Safari/537.36" etag="OQF2EQxftDHRVKkutnBF" version="18.1.3" type="github">
  <diagram id="C5RBs43oDa-KdzZeNtuy" name="Page-1">
    <mxGraphModel dx="731" dy="388" grid="1" gridSize="10" guides="1" tooltips="1" connect="1" arrows="1" fold="1" page="1" pageScale="1" pageWidth="827" pageHeight="1169" math="0" shadow="0">
      <root>
        <mxCell id="WIyWlLk6GJQsqaUBKTNV-0" />
        <mxCell id="WIyWlLk6GJQsqaUBKTNV-1" parent="WIyWlLk6GJQsqaUBKTNV-0" />
        <mxCell id="BfKTVqbURA2rW4PKzyzV-0" value="Students" style="rounded=0;whiteSpace=wrap;html=1;fontStyle=1" parent="WIyWlLk6GJQsqaUBKTNV-1" vertex="1">
          <mxGeometry x="40" y="25" width="110" height="50" as="geometry" />
        </mxCell>
        <mxCell id="BfKTVqbURA2rW4PKzyzV-4" value="&lt;b&gt;Vendors&lt;/b&gt;" style="rounded=0;whiteSpace=wrap;html=1;" parent="WIyWlLk6GJQsqaUBKTNV-1" vertex="1">
          <mxGeometry x="450" y="25" width="110" height="50" as="geometry" />
        </mxCell>
        <mxCell id="6DLlhwHsqg0y1MbNJzqD-5" style="edgeStyle=orthogonalEdgeStyle;rounded=0;orthogonalLoop=1;jettySize=auto;html=1;exitX=1;exitY=1;exitDx=0;exitDy=0;startArrow=none;startFill=0;endArrow=classic;endFill=1;" edge="1" parent="WIyWlLk6GJQsqaUBKTNV-1" source="BfKTVqbURA2rW4PKzyzV-5">
          <mxGeometry relative="1" as="geometry">
            <mxPoint x="317" y="237" as="targetPoint" />
          </mxGeometry>
        </mxCell>
        <mxCell id="BfKTVqbURA2rW4PKzyzV-5" value="1. Billing System" style="ellipse;whiteSpace=wrap;html=1;aspect=fixed;" parent="WIyWlLk6GJQsqaUBKTNV-1" vertex="1">
          <mxGeometry x="240" y="160" width="90" height="90" as="geometry" />
        </mxCell>
        <mxCell id="BfKTVqbURA2rW4PKzyzV-6" value="" style="endArrow=classic;html=1;rounded=0;exitX=0.5;exitY=1;exitDx=0;exitDy=0;" parent="WIyWlLk6GJQsqaUBKTNV-1" source="BfKTVqbURA2rW4PKzyzV-0" edge="1">
          <mxGeometry width="50" height="50" relative="1" as="geometry">
            <mxPoint x="390" y="270" as="sourcePoint" />
            <mxPoint x="240" y="200" as="targetPoint" />
            <Array as="points">
              <mxPoint x="95" y="200" />
            </Array>
          </mxGeometry>
        </mxCell>
        <mxCell id="BfKTVqbURA2rW4PKzyzV-8" value="" style="endArrow=classic;html=1;rounded=0;entryX=0.75;entryY=1;entryDx=0;entryDy=0;exitX=0;exitY=0;exitDx=0;exitDy=0;" parent="WIyWlLk6GJQsqaUBKTNV-1" source="BfKTVqbURA2rW4PKzyzV-5" target="BfKTVqbURA2rW4PKzyzV-0" edge="1">
          <mxGeometry width="50" height="50" relative="1" as="geometry">
            <mxPoint x="230" y="170" as="sourcePoint" />
            <mxPoint x="440" y="210" as="targetPoint" />
            <Array as="points">
              <mxPoint x="123" y="173" />
            </Array>
          </mxGeometry>
        </mxCell>
        <mxCell id="BfKTVqbURA2rW4PKzyzV-9" value="" style="endArrow=classic;html=1;rounded=0;exitX=1;exitY=1;exitDx=0;exitDy=0;entryX=0.5;entryY=0;entryDx=0;entryDy=0;" parent="WIyWlLk6GJQsqaUBKTNV-1" source="BfKTVqbURA2rW4PKzyzV-0" target="BfKTVqbURA2rW4PKzyzV-5" edge="1">
          <mxGeometry width="50" height="50" relative="1" as="geometry">
            <mxPoint x="390" y="260" as="sourcePoint" />
            <mxPoint x="150" y="150" as="targetPoint" />
            <Array as="points">
              <mxPoint x="180" y="75" />
              <mxPoint x="285" y="75" />
            </Array>
          </mxGeometry>
        </mxCell>
        <mxCell id="BfKTVqbURA2rW4PKzyzV-10" value="" style="endArrow=classic;html=1;rounded=0;entryX=0;entryY=0.5;entryDx=0;entryDy=0;exitX=1;exitY=0;exitDx=0;exitDy=0;" parent="WIyWlLk6GJQsqaUBKTNV-1" source="BfKTVqbURA2rW4PKzyzV-5" target="BfKTVqbURA2rW4PKzyzV-4" edge="1">
          <mxGeometry width="50" height="50" relative="1" as="geometry">
            <mxPoint x="330" y="180" as="sourcePoint" />
            <mxPoint x="325" y="75" as="targetPoint" />
            <Array as="points">
              <mxPoint x="317" y="50" />
            </Array>
          </mxGeometry>
        </mxCell>
        <mxCell id="BfKTVqbURA2rW4PKzyzV-11" value="" style="endArrow=none;html=1;rounded=0;exitX=0.989;exitY=0.422;exitDx=0;exitDy=0;exitPerimeter=0;entryX=0.5;entryY=1;entryDx=0;entryDy=0;endFill=0;startArrow=classic;startFill=1;" parent="WIyWlLk6GJQsqaUBKTNV-1" source="BfKTVqbURA2rW4PKzyzV-5" target="BfKTVqbURA2rW4PKzyzV-4" edge="1">
          <mxGeometry width="50" height="50" relative="1" as="geometry">
            <mxPoint x="389" y="225" as="sourcePoint" />
            <mxPoint x="439" y="175" as="targetPoint" />
            <Array as="points">
              <mxPoint x="380" y="160" />
              <mxPoint x="505" y="160" />
            </Array>
          </mxGeometry>
        </mxCell>
        <mxCell id="BfKTVqbURA2rW4PKzyzV-12" value="Extras/Rebates" style="text;html=1;align=center;verticalAlign=middle;resizable=0;points=[];autosize=1;strokeColor=none;fillColor=none;" parent="WIyWlLk6GJQsqaUBKTNV-1" vertex="1">
          <mxGeometry x="110" y="200" width="90" height="20" as="geometry" />
        </mxCell>
        <mxCell id="BfKTVqbURA2rW4PKzyzV-19" value="Payments" style="text;html=1;align=center;verticalAlign=middle;resizable=0;points=[];autosize=1;strokeColor=none;fillColor=none;" parent="WIyWlLk6GJQsqaUBKTNV-1" vertex="1">
          <mxGeometry x="190" y="55" width="60" height="20" as="geometry" />
        </mxCell>
        <mxCell id="BfKTVqbURA2rW4PKzyzV-20" value="Bills" style="text;html=1;align=center;verticalAlign=middle;resizable=0;points=[];autosize=1;strokeColor=none;fillColor=none;" parent="WIyWlLk6GJQsqaUBKTNV-1" vertex="1">
          <mxGeometry x="160" y="150" width="40" height="20" as="geometry" />
        </mxCell>
        <mxCell id="BfKTVqbURA2rW4PKzyzV-21" value="Requisitions" style="text;html=1;align=center;verticalAlign=middle;resizable=0;points=[];autosize=1;strokeColor=none;fillColor=none;" parent="WIyWlLk6GJQsqaUBKTNV-1" vertex="1">
          <mxGeometry x="320" y="55" width="80" height="20" as="geometry" />
        </mxCell>
        <mxCell id="BfKTVqbURA2rW4PKzyzV-22" value="Unpaid &lt;br&gt;bills" style="text;html=1;align=center;verticalAlign=middle;resizable=0;points=[];autosize=1;strokeColor=none;fillColor=none;" parent="WIyWlLk6GJQsqaUBKTNV-1" vertex="1">
          <mxGeometry x="510" y="310" width="50" height="30" as="geometry" />
        </mxCell>
        <mxCell id="BfKTVqbURA2rW4PKzyzV-27" value="" style="endArrow=classic;html=1;rounded=0;entryX=0;entryY=0;entryDx=0;entryDy=0;exitX=1;exitY=0.5;exitDx=0;exitDy=0;" parent="WIyWlLk6GJQsqaUBKTNV-1" source="BfKTVqbURA2rW4PKzyzV-5" target="6DLlhwHsqg0y1MbNJzqD-1" edge="1">
          <mxGeometry width="50" height="50" relative="1" as="geometry">
            <mxPoint x="350" y="230" as="sourcePoint" />
            <mxPoint x="285" y="340" as="targetPoint" />
            <Array as="points">
              <mxPoint x="370" y="235" />
            </Array>
          </mxGeometry>
        </mxCell>
        <mxCell id="6DLlhwHsqg0y1MbNJzqD-0" value="Mess Manager" style="rounded=0;whiteSpace=wrap;html=1;fontStyle=1" vertex="1" parent="WIyWlLk6GJQsqaUBKTNV-1">
          <mxGeometry x="50" y="340" width="110" height="50" as="geometry" />
        </mxCell>
        <mxCell id="6DLlhwHsqg0y1MbNJzqD-1" value="Mess Secretary" style="rounded=0;whiteSpace=wrap;html=1;fontStyle=1" vertex="1" parent="WIyWlLk6GJQsqaUBKTNV-1">
          <mxGeometry x="520" y="235" width="110" height="50" as="geometry" />
        </mxCell>
        <mxCell id="6DLlhwHsqg0y1MbNJzqD-2" value="&lt;b&gt;Chief Warden&lt;/b&gt;" style="rounded=0;whiteSpace=wrap;html=1;" vertex="1" parent="WIyWlLk6GJQsqaUBKTNV-1">
          <mxGeometry x="450" y="340" width="110" height="50" as="geometry" />
        </mxCell>
        <mxCell id="6DLlhwHsqg0y1MbNJzqD-3" value="Supplies" style="text;html=1;align=center;verticalAlign=middle;resizable=0;points=[];autosize=1;strokeColor=none;fillColor=none;" vertex="1" parent="WIyWlLk6GJQsqaUBKTNV-1">
          <mxGeometry x="440" y="140" width="60" height="20" as="geometry" />
        </mxCell>
        <mxCell id="6DLlhwHsqg0y1MbNJzqD-4" value="" style="endArrow=none;html=1;rounded=0;exitX=0.75;exitY=1;exitDx=0;exitDy=0;entryX=1;entryY=0.5;entryDx=0;entryDy=0;startArrow=classic;startFill=1;endFill=0;" edge="1" parent="WIyWlLk6GJQsqaUBKTNV-1" source="BfKTVqbURA2rW4PKzyzV-4" target="BfKTVqbURA2rW4PKzyzV-5">
          <mxGeometry width="50" height="50" relative="1" as="geometry">
            <mxPoint x="390" y="320" as="sourcePoint" />
            <mxPoint x="440" y="270" as="targetPoint" />
            <Array as="points">
              <mxPoint x="533" y="205" />
            </Array>
          </mxGeometry>
        </mxCell>
        <mxCell id="6DLlhwHsqg0y1MbNJzqD-6" value="Payments" style="text;html=1;align=center;verticalAlign=middle;resizable=0;points=[];autosize=1;strokeColor=none;fillColor=none;" vertex="1" parent="WIyWlLk6GJQsqaUBKTNV-1">
          <mxGeometry x="465" y="180" width="60" height="20" as="geometry" />
        </mxCell>
        <mxCell id="6DLlhwHsqg0y1MbNJzqD-7" value="" style="endArrow=classic;html=1;rounded=0;entryX=0.5;entryY=0;entryDx=0;entryDy=0;exitX=1;exitY=1;exitDx=0;exitDy=0;" edge="1" parent="WIyWlLk6GJQsqaUBKTNV-1" source="BfKTVqbURA2rW4PKzyzV-5" target="6DLlhwHsqg0y1MbNJzqD-2">
          <mxGeometry width="50" height="50" relative="1" as="geometry">
            <mxPoint x="260" y="290" as="sourcePoint" />
            <mxPoint x="310" y="240" as="targetPoint" />
            <Array as="points">
              <mxPoint x="420" y="320" />
              <mxPoint x="505" y="320" />
            </Array>
          </mxGeometry>
        </mxCell>
        <mxCell id="6DLlhwHsqg0y1MbNJzqD-8" value="" style="endArrow=classic;html=1;rounded=0;exitX=1;exitY=1;exitDx=0;exitDy=0;entryX=0;entryY=0.5;entryDx=0;entryDy=0;" edge="1" parent="WIyWlLk6GJQsqaUBKTNV-1" source="BfKTVqbURA2rW4PKzyzV-5" target="6DLlhwHsqg0y1MbNJzqD-2">
          <mxGeometry width="50" height="50" relative="1" as="geometry">
            <mxPoint x="260" y="290" as="sourcePoint" />
            <mxPoint x="360" y="330" as="targetPoint" />
            <Array as="points">
              <mxPoint x="317" y="365" />
            </Array>
          </mxGeometry>
        </mxCell>
        <mxCell id="6DLlhwHsqg0y1MbNJzqD-9" value="Overdue payments to &lt;br&gt;vendors" style="text;html=1;align=center;verticalAlign=middle;resizable=0;points=[];autosize=1;strokeColor=none;fillColor=none;" vertex="1" parent="WIyWlLk6GJQsqaUBKTNV-1">
          <mxGeometry x="330" y="370" width="120" height="30" as="geometry" />
        </mxCell>
        <mxCell id="6DLlhwHsqg0y1MbNJzqD-10" value="Daily rate" style="text;html=1;align=center;verticalAlign=middle;resizable=0;points=[];autosize=1;strokeColor=none;fillColor=none;" vertex="1" parent="WIyWlLk6GJQsqaUBKTNV-1">
          <mxGeometry x="420" y="215" width="60" height="20" as="geometry" />
        </mxCell>
        <mxCell id="6DLlhwHsqg0y1MbNJzqD-12" value="" style="endArrow=classic;html=1;rounded=0;exitX=0;exitY=0.75;exitDx=0;exitDy=0;" edge="1" parent="WIyWlLk6GJQsqaUBKTNV-1" source="6DLlhwHsqg0y1MbNJzqD-1" target="BfKTVqbURA2rW4PKzyzV-5">
          <mxGeometry width="50" height="50" relative="1" as="geometry">
            <mxPoint x="260" y="210" as="sourcePoint" />
            <mxPoint x="380" y="268" as="targetPoint" />
            <Array as="points">
              <mxPoint x="390" y="273" />
            </Array>
          </mxGeometry>
        </mxCell>
        <mxCell id="6DLlhwHsqg0y1MbNJzqD-13" value="Menu" style="text;html=1;align=center;verticalAlign=middle;resizable=0;points=[];autosize=1;strokeColor=none;fillColor=none;" vertex="1" parent="WIyWlLk6GJQsqaUBKTNV-1">
          <mxGeometry x="440" y="250" width="40" height="20" as="geometry" />
        </mxCell>
        <mxCell id="6DLlhwHsqg0y1MbNJzqD-14" value="" style="endArrow=classic;html=1;rounded=0;entryX=1;entryY=0.5;entryDx=0;entryDy=0;exitX=0.5;exitY=1;exitDx=0;exitDy=0;" edge="1" parent="WIyWlLk6GJQsqaUBKTNV-1" source="BfKTVqbURA2rW4PKzyzV-5" target="6DLlhwHsqg0y1MbNJzqD-0">
          <mxGeometry width="50" height="50" relative="1" as="geometry">
            <mxPoint x="260" y="210" as="sourcePoint" />
            <mxPoint x="310" y="160" as="targetPoint" />
            <Array as="points">
              <mxPoint x="285" y="365" />
            </Array>
          </mxGeometry>
        </mxCell>
        <mxCell id="6DLlhwHsqg0y1MbNJzqD-16" value="" style="endArrow=classic;html=1;rounded=0;entryX=0;entryY=1;entryDx=0;entryDy=0;exitX=0.5;exitY=0;exitDx=0;exitDy=0;" edge="1" parent="WIyWlLk6GJQsqaUBKTNV-1" source="6DLlhwHsqg0y1MbNJzqD-0" target="BfKTVqbURA2rW4PKzyzV-5">
          <mxGeometry width="50" height="50" relative="1" as="geometry">
            <mxPoint x="130" y="340" as="sourcePoint" />
            <mxPoint x="180" y="290" as="targetPoint" />
            <Array as="points">
              <mxPoint x="105" y="237" />
            </Array>
          </mxGeometry>
        </mxCell>
        <mxCell id="6DLlhwHsqg0y1MbNJzqD-17" value="Perishable items &lt;br&gt;needed" style="text;html=1;align=center;verticalAlign=middle;resizable=0;points=[];autosize=1;strokeColor=none;fillColor=none;" vertex="1" parent="WIyWlLk6GJQsqaUBKTNV-1">
          <mxGeometry x="120" y="240" width="90" height="30" as="geometry" />
        </mxCell>
        <mxCell id="6DLlhwHsqg0y1MbNJzqD-18" value="Items needed &lt;br&gt;each day" style="text;html=1;align=center;verticalAlign=middle;resizable=0;points=[];autosize=1;strokeColor=none;fillColor=none;" vertex="1" parent="WIyWlLk6GJQsqaUBKTNV-1">
          <mxGeometry x="210" y="335" width="80" height="30" as="geometry" />
        </mxCell>
      </root>
    </mxGraphModel>
  </diagram>
</mxfile>
